<?xml version="1.0" encoding="iso-8859-1"?>
<!-- Uploaded to: SVG Repo, www.svgrepo.com, Generator: SVG Repo Mixer Tools -->
<svg height="800px" width="800px" version="1.1" id="Layer_1" xmlns="http://www.w3.org/2000/svg" xmlns:xlink="http://www.w3.org/1999/xlink" 
	 viewBox="0 0 392.541 392.541" xml:space="preserve">
<path style="fill:#FFFFFF;" d="M268.218,145.069c0-67.943-55.273-123.281-123.281-123.281c-67.879,0-123.216,55.273-123.216,123.281
	S76.994,268.35,145.002,268.35C212.945,268.221,268.218,212.948,268.218,145.069z"/>
<path style="fill:#56ACE0;" d="M297.956,270.548l-27.41,27.41l67.103,67.103c7.37,7.37,20.105,7.37,27.41,0
	c7.564-7.564,7.564-19.846,0-27.41L297.956,270.548z"/>
<path style="fill:#194F82;" d="M380.509,322.2l-74.796-74.796c-4.267-4.267-11.119-4.267-15.451,0l-13.705,13.705l-21.657-21.657
	c21.85-25.406,35.168-58.44,35.168-94.513c0-79.903-65.034-144.937-145.067-144.937S0,65.037,0,145.069
	s65.034,145.002,145.067,145.002c36.073,0,69.107-13.317,94.513-35.168l21.657,21.657l-13.705,13.705
	c-2.004,2.004-3.168,4.784-3.168,7.758c0,2.844,1.164,5.624,3.168,7.758l74.796,74.731c17.002,16.549,42.667,15.515,58.246,0
	C396.541,364.415,396.541,338.297,380.509,322.2z M21.786,145.069c0-67.943,55.273-123.281,123.281-123.281
	c67.943,0,123.281,55.273,123.281,123.281S213.075,268.35,145.067,268.35C77.123,268.221,21.786,212.948,21.786,145.069z
	 M365.123,365.126c-7.37,7.37-20.105,7.37-27.41,0l-67.103-67.103l27.41-27.41l67.103,67.103
	C372.622,345.279,372.622,357.562,365.123,365.126z"/>
<path style="fill:#FFC10D;" d="M202.214,129.295c-1.293-4.784-3.168-9.374-5.624-13.576c-2.392-4.267-1.681-9.632,1.745-13.123
	l11.83-11.83L199.24,79.841l-11.83,11.83c-3.491,3.491-8.792,4.202-13.123,1.745c-4.267-2.392-8.792-4.331-13.576-5.624
	c-4.719-1.293-8.016-5.624-8.016-10.537V60.512h-15.451v16.743c0,4.978-3.297,9.18-8.016,10.537
	c-4.784,1.293-9.374,3.168-13.576,5.624c-4.267,2.457-9.632,1.681-13.123-1.745l-11.83-11.83L79.774,90.766l11.766,11.766
	c3.491,3.491,4.202,8.792,1.745,13.123c-2.392,4.267-4.331,8.792-5.624,13.576c-1.293,4.719-5.624,8.016-10.537,8.016H60.509v15.451
	h16.743c4.978,0,9.18,3.232,10.537,8.016c1.293,4.784,3.168,9.374,5.624,13.576c2.392,4.267,1.681,9.632-1.745,13.123l-11.83,11.83
	l10.925,10.925l11.83-11.83c3.491-3.491,8.792-4.202,13.123-1.745c4.267,2.392,8.792,4.331,13.576,5.624
	c4.719,1.293,8.016,5.624,8.016,10.537v16.679h15.451v-16.743c0-4.913,3.232-9.18,8.016-10.537s9.374-3.168,13.576-5.624
	c4.267-2.392,9.632-1.681,13.123,1.745l11.83,11.83l10.925-10.925l-11.83-11.83c-3.491-3.491-4.202-8.792-1.745-13.123
	c2.392-4.267,4.331-8.792,5.624-13.576c1.293-4.719,5.624-8.016,10.537-8.016h16.679v-15.451h-16.743
	C207.838,137.312,203.507,134.015,202.214,129.295z M145.067,181.918c-20.299,0-36.848-16.549-36.848-36.848
	s16.549-36.848,36.848-36.848s36.848,16.549,36.848,36.848S165.366,181.918,145.067,181.918z"/>
<g>
	<path style="fill:#194F82;" d="M240.485,115.526h-19.782c-0.388-1.034-0.84-2.004-1.228-3.038l13.964-13.964
		c4.267-4.267,4.267-11.119,0-15.451l-26.376-26.376c-4.267-4.267-11.119-4.267-15.451,0l-13.964,13.964
		c-1.034-0.453-2.004-0.84-3.038-1.228V49.586c0-6.012-4.848-10.925-10.925-10.925h-37.236c-6.012,0-10.925,4.848-10.925,10.925
		v19.782c-1.034,0.388-2.004,0.84-3.038,1.228L98.586,56.633c-4.267-4.267-11.119-4.267-15.451,0L56.76,83.009
		c-4.396,4.59-4.008,10.99,0,15.451l13.964,13.964c-0.453,1.034-0.84,2.004-1.228,3.038H49.584c-6.012,0-10.925,4.848-10.925,10.925
		v37.236c0,6.012,4.848,10.925,10.925,10.925h19.782c0.388,1.034,0.84,2.004,1.228,3.038L56.63,191.615
		c-4.655,4.655-4.008,11.313,0,15.451l26.376,26.376c4.267,4.267,11.119,4.267,15.451,0l13.964-13.964
		c1.034,0.453,2.004,0.84,3.038,1.228v19.782c0,6.012,4.848,10.925,10.925,10.925h37.236c6.012,0,10.925-4.848,10.925-10.925
		v-19.782c1.034-0.388,2.004-0.84,3.038-1.228l14.158,13.899c4.267,4.267,11.119,4.267,15.451,0L233.568,207
		c4.59-4.719,4.008-11.96,0-15.451l-13.964-13.964c0.453-1.034,0.84-2.004,1.228-3.038h19.782c6.012,0,10.925-4.848,10.925-10.925
		v-37.236C251.345,120.374,246.497,115.526,240.485,115.526z M229.495,152.762h-16.743c-4.913,0-9.18,3.232-10.537,8.016
		c-1.293,4.784-3.168,9.374-5.624,13.576c-2.392,4.267-1.681,9.632,1.745,13.123l11.83,11.83l-10.925,10.925l-11.83-11.83
		c-3.491-3.491-8.792-4.202-13.123-1.745c-4.267,2.392-8.792,4.331-13.576,5.624c-4.719,1.293-8.016,5.624-8.016,10.537v16.679
		h-15.451v-16.743c0-4.913-3.232-9.18-8.016-10.537c-4.784-1.358-9.374-3.168-13.576-5.624c-4.267-2.392-9.632-1.681-13.123,1.745
		l-11.83,11.83l-10.925-10.925l11.83-11.83c3.491-3.491,4.202-8.792,1.745-13.123c-2.392-4.267-4.331-8.792-5.624-13.576
		c-1.293-4.719-5.624-8.016-10.537-8.016H60.509v-15.451h16.743c4.978,0,9.18-3.232,10.537-8.016
		c1.293-4.784,3.232-9.374,5.624-13.576c2.392-4.267,1.681-9.632-1.745-13.123l-11.83-11.83l10.925-10.925l11.766,11.766
		c3.491,3.491,8.792,4.202,13.123,1.745c4.267-2.392,8.792-4.331,13.576-5.624c4.719-1.293,8.016-5.624,8.016-10.537V60.512h15.451
		v16.743c0,4.978,3.297,9.18,8.016,10.537c4.784,1.293,9.374,3.168,13.576,5.624c4.267,2.457,9.632,1.681,13.123-1.745l11.83-11.83
		l10.925,10.925L198.4,102.532c-3.491,3.491-4.202,8.792-1.745,13.123c2.392,4.267,4.331,8.792,5.624,13.576
		c1.293,4.719,5.624,8.016,10.537,8.016h16.679L229.495,152.762L229.495,152.762z"/>
	<path style="fill:#194F82;" d="M145.067,108.156c-20.299,0-36.848,16.549-36.848,36.848s16.549,36.848,36.848,36.848
		s36.848-16.549,36.848-36.848S165.366,108.156,145.067,108.156z M145.067,160.132c-8.275,0-15.063-6.723-15.063-15.063
		c0-8.275,6.723-15.063,15.063-15.063c8.275,0,15.063,6.723,15.063,15.063C160.129,153.279,153.277,160.132,145.067,160.132z"/>
</g>
</svg>