<?xml version="1.0" encoding="iso-8859-1"?>
<!-- Uploaded to: SVG Repo, www.svgrepo.com, Generator: SVG Repo Mixer Tools -->
<svg version="1.1" id="Layer_1" xmlns="http://www.w3.org/2000/svg" xmlns:xlink="http://www.w3.org/1999/xlink" 
	 viewBox="0 0 512 512" xml:space="preserve">
<rect x="276.43" y="16.945" style="fill:#2A8FE7;" width="96.317" height="487.454"/>
<g style="opacity:0.37;">
	<rect x="276.43" y="16.945" style="fill:#28549C;" width="26.096" height="487.454"/>
</g>
<rect x="139.255" y="112.224" style="fill:#FFD83B;" width="63.407" height="328.927"/>
<path style="fill:#FF7956;" d="M174.781,504.396h-7.807c-15.308,0-27.719-12.41-27.719-27.719v-35.526h63.244v35.526
	C202.5,491.985,190.089,504.396,174.781,504.396z"/>
<polygon style="fill:#FFC477;" points="139.255,112.226 170.959,7.604 202.663,112.226 "/>
<g style="opacity:0.7;">
	<polygon points="170.958,7.604 155.107,59.915 186.811,59.915 	"/>
</g>
<rect x="139.255" y="411.445" style="fill:#CD2A00;" width="63.245" height="29.706"/>
<path style="opacity:0.38;enable-background:new    ;" d="M186.811,59.915l-1.116-3.683L170.959,7.604l0,0l0,0l-7.994,26.382
	l1.972,6.508l1.116,3.683l15.852,52.311v328.926h-0.163v35.526c0,15.308-12.41,27.719-27.719,27.719h-7.807
	c-1.5,0-2.969-0.123-4.403-0.352c4.397,9.498,14.006,16.09,25.161,16.09h7.807c15.308,0,27.719-12.41,27.719-27.719v-35.526h0.163
	V112.226L186.811,59.915z"/>
<path d="M372.746,9.341h-96.318c-4.2,0-7.604,3.405-7.604,7.604v487.451c0,4.199,3.404,7.604,7.604,7.604h96.318
	c4.2,0,7.604-3.405,7.604-7.604V16.945C380.35,12.745,376.947,9.341,372.746,9.341z M284.032,24.549h10.888v472.243h-10.888V24.549z
	 M310.129,496.792V24.549h55.014v9.25c-5.589-0.005-13.953-0.159-21.344-0.375c-4.146-0.121-7.7,3.18-7.823,7.378
	c-0.123,4.198,3.181,7.7,7.379,7.823c9.722,0.284,16.492,0.437,21.286,0.437c0.172,0,0.335-0.001,0.501-0.001v13.197
	c-4.275-0.035-10.046-0.178-15.15-0.367c-4.201-0.174-7.724,3.121-7.88,7.317c-0.155,4.196,3.121,7.725,7.318,7.88
	c0.23,0.009,5.684,0.21,11.34,0.317c1.632,0.031,3.07,0.055,4.373,0.069v13.249c-4.275-0.035-10.046-0.178-15.15-0.367
	c-4.201-0.184-7.724,3.121-7.88,7.317c-0.155,4.196,3.121,7.725,7.318,7.88c0.23,0.009,5.684,0.21,11.34,0.317
	c1.632,0.031,3.07,0.055,4.373,0.069v13.255c-5.589-0.005-13.953-0.159-21.344-0.375c-0.075-0.002-0.15-0.003-0.226-0.003
	c-4.096,0-7.476,3.26-7.597,7.382c-0.123,4.197,3.182,7.7,7.379,7.822c9.721,0.284,16.49,0.437,21.283,0.437
	c0.173,0,0.337-0.001,0.504-0.001v17.672c-5.589-0.006-13.953-0.159-21.344-0.375c-0.075-0.002-0.15-0.003-0.226-0.003
	c-4.096,0-7.476,3.26-7.597,7.382c-0.123,4.198,3.181,7.7,7.379,7.823c9.722,0.284,16.492,0.437,21.286,0.437
	c0.172,0,0.335-0.001,0.501-0.001v13.197c-4.275-0.035-10.046-0.178-15.15-0.367c-4.201-0.167-7.724,3.121-7.88,7.317
	c-0.155,4.196,3.121,7.725,7.318,7.88c0.23,0.009,5.684,0.21,11.34,0.317c1.632,0.031,3.07,0.055,4.373,0.069v13.249
	c-4.275-0.035-10.046-0.178-15.15-0.367c-4.201-0.176-7.724,3.121-7.88,7.317c-0.155,4.196,3.121,7.725,7.318,7.88
	c0.23,0.009,5.684,0.21,11.34,0.317c1.632,0.031,3.07,0.055,4.373,0.069v13.255c-5.589-0.005-13.953-0.159-21.344-0.375
	c-0.075-0.002-0.15-0.003-0.226-0.003c-4.096,0-7.476,3.26-7.597,7.382c-0.123,4.198,3.181,7.7,7.379,7.823
	c9.722,0.284,16.492,0.437,21.286,0.437c0.172,0,0.335-0.001,0.501-0.001v17.672c-5.589-0.005-13.953-0.159-21.344-0.375
	c-0.075-0.002-0.15-0.003-0.226-0.003c-4.096,0-7.476,3.26-7.597,7.382c-0.123,4.198,3.181,7.7,7.379,7.823
	c9.722,0.284,16.492,0.437,21.286,0.437c0.172,0,0.335-0.001,0.501-0.001v13.198c-4.275-0.035-10.046-0.179-15.15-0.368
	c-4.201-0.181-7.724,3.121-7.88,7.317c-0.155,4.196,3.121,7.725,7.318,7.88c0.23,0.009,5.684,0.21,11.34,0.317
	c1.632,0.031,3.07,0.055,4.373,0.069v13.25c-4.275-0.035-10.046-0.179-15.15-0.368c-4.201-0.169-7.724,3.121-7.88,7.317
	c-0.155,4.196,3.121,7.725,7.318,7.88c0.23,0.009,5.684,0.21,11.34,0.317c1.632,0.031,3.07,0.055,4.373,0.069v13.255
	c-5.589-0.005-13.953-0.159-21.344-0.375c-0.075-0.002-0.15-0.003-0.226-0.003c-4.096,0-7.476,3.26-7.597,7.382
	c-0.123,4.198,3.181,7.7,7.379,7.823c9.722,0.284,16.492,0.437,21.286,0.437c0.172,0,0.335-0.001,0.501-0.001v17.672
	c-5.589-0.005-13.953-0.159-21.344-0.375c-0.075-0.002-0.15-0.003-0.226-0.003c-4.096,0-7.476,3.26-7.597,7.382
	c-0.123,4.197,3.181,7.7,7.379,7.822c9.721,0.284,16.49,0.437,21.283,0.437c0.173,0,0.337-0.001,0.504-0.001v13.198
	c-4.275-0.035-10.046-0.179-15.15-0.367c-4.201-0.173-7.724,3.121-7.88,7.317c-0.155,4.196,3.121,7.725,7.318,7.88
	c0.23,0.009,5.684,0.21,11.34,0.317c1.632,0.031,3.07,0.055,4.373,0.069v13.25c-4.275-0.035-10.046-0.179-15.15-0.367
	c-4.201-0.184-7.724,3.121-7.88,7.317c-0.155,4.196,3.121,7.725,7.318,7.88c0.23,0.009,5.684,0.21,11.34,0.317
	c1.632,0.031,3.07,0.055,4.373,0.069v13.255c-5.589-0.005-13.953-0.159-21.344-0.375c-4.146-0.134-7.7,3.18-7.823,7.378
	c-0.123,4.198,3.181,7.7,7.379,7.823c9.722,0.284,16.492,0.437,21.286,0.437c0.172,0,0.335-0.001,0.501-0.001v7.343H310.129z"/>
<path d="M210.236,111.634c-0.014-0.188-0.038-0.371-0.066-0.555c-0.013-0.087-0.023-0.173-0.04-0.261
	c-0.048-0.255-0.107-0.507-0.18-0.753c-0.004-0.015-0.006-0.03-0.011-0.045l-0.005-0.017c-0.007-0.022-0.013-0.045-0.02-0.067
	L178.236,5.399C177.265,2.193,174.309,0,170.958,0s-6.306,2.193-7.277,5.399l-31.677,104.535c-0.007,0.024-0.014,0.049-0.022,0.073
	l-0.004,0.014c-0.004,0.012-0.005,0.025-0.009,0.038c-0.074,0.248-0.134,0.503-0.182,0.761c-0.016,0.086-0.026,0.172-0.04,0.259
	c-0.028,0.184-0.052,0.368-0.066,0.556c-0.009,0.112-0.013,0.222-0.017,0.333c-0.003,0.087-0.013,0.171-0.013,0.259v328.926v35.526
	c0,19.477,15.846,35.323,35.323,35.323h7.806c19.477,0,35.323-15.846,35.323-35.323v-33.958c0.105-0.506,0.163-1.03,0.163-1.567
	V112.226c0-0.087-0.01-0.172-0.013-0.259C210.25,111.856,210.245,111.745,210.236,111.634z M160.748,67.519h20.421l11.244,37.103
	h-42.908L160.748,67.519z M178.562,119.83h16.497v284.008h-16.533c0.023-0.241,0.036-0.486,0.036-0.733L178.562,119.83
	L178.562,119.83z M163.354,119.83v283.274c0,0.247,0.014,0.492,0.036,0.733h-16.532V119.83H163.354z M146.86,419.045h48.199v14.502
	H146.86L146.86,419.045L146.86,419.045z M170.958,33.824l5.603,18.487h-11.204L170.958,33.824z M194.895,476.677
	c0,11.092-9.023,20.115-20.115,20.115h-7.806c-11.091,0-20.115-9.023-20.115-20.115v-27.922h48.036V476.677z"/>
</svg>